<svg xmlns="http://www.w3.org/2000/svg" version="1.1">
<!-- Boundry Polygon -->
<polygon points="0,0 300,0 300,200 200,200 200,100 100,100 100,200 0,200 0,0 " style="fill:red;stroke:whitestroke-width:1" />
<!-- Convex Partitioning -->
<polygon points="300,0 300,200 200,300 200,100 "
  style="fill:green;stroke:whitestroke-width:1" />
<polygon points="0,0 300,0 200,100 100,100 "
  style="fill:cyan;stroke:whitestroke-width:1" />
<polygon points="0,0 100,100 100,200 0,200 0,0 "
  style="fill:blue;stroke:whitestroke-width:1" />
<!-- Search path -->

<!-- atom settings install, search for svg, install svg preview, press ctrl+alt+v -->
<!-- <line x1="0" y1="0" x2="200" y2="200"
  style="stroke:rgb(255,0,0);stroke-width:2" /> -->

  <line
  x1="00.0000000000" y1="00.0000000000" x2="300.0000000000" y2="0.0000000000"
  style="stroke:rgb(255,0,0);stroke-width:2" />
  <line
  x1="300.0000000000" y1="200.0000000000" x2="200.0000000000" y2="100.0000000000"
  style="stroke:rgb(255,0,0);stroke-width:2" />
  <line
  x1="200.0000000000" y1="200.0000000000" x2="200.0000000000" y2="100.0000000000"
  style="stroke:rgb(255,0,0);stroke-width:2" />
  <line
  x1="292.8571428571" y1="189.2857142857" x2="292.8571428571" y2="17.8571428571"
  style="stroke:rgb(255,0,0);stroke-width:2" />
  <line
  x1="207.1428571429" y1="189.2857142857" x2="207.1428571429" y2="103.5714285714"
  style="stroke:rgb(255,0,0);stroke-width:2" />

<!-- x1="300.0000000000" y1="200.0000000000" x2="300.0000000000" y2="0.0000000000"
x1="200.0000000000" y1="200.0000000000" x2="200.0000000000" y2="100.0000000000"
x1="292.8571428571" y1="189.2857142857" x2="292.8571428571" y2="17.8571428571"
x1="207.1428571429" y1="189.2857142857" x2="207.1428571429" y2="103.5714285714"
x1="285.7142857143" y1="178.5714285714" x2="285.7142857143" y2="35.7142857143"
x1="214.2857142857" y1="178.5714285714" x2="214.2857142857" y2="107.1428571429"
x1="278.5714285714" y1="167.8571428571" x2="278.5714285714" y2="53.5714285714"
x1="221.4285714286" y1="167.8571428571" x2="221.4285714286" y2="110.7142857143"
x1="271.4285714286" y1="157.1428571429" x2="271.4285714286" y2="71.4285714286"
x1="228.5714285714" y1="157.1428571429" x2="228.5714285714" y2="114.2857142857"
x1="264.2857142857" y1="146.4285714286" x2="264.2857142857" y2="89.2857142857"
x1="235.7142857143" y1="146.4285714286" x2="235.7142857143" y2="117.8571428571"
x1="257.1428571429" y1="135.7142857143" x2="257.1428571429" y2="107.1428571429"
x1="242.8571428571" y1="135.7142857143" x2="242.8571428571" y2="121.4285714286"
x1="250.0000000000" y1="125.0000000000" x2="300.0000000000" y2="0.0000000000"
p
x1="300.0000000000" y1="0.0000000000"   x2="200.0000000000"  y2="100.0000000000"
x1="100.0000000000" y1="100.0000000000" x2="0.0000000000"    y2="0.0000000000"
x1="278.5714285714" y1="7.1428571429"   x2="192.8571428571"  y2="92.8571428571"
x1="107.1428571429" y1="92.8571428571"  x2="21.4285714286"   y2="7.1428571429"
x1="257.1428571429" y1="14.2857142857"  x2="185.7142857143"  y2="85.7142857143"
x1="114.2857142857" y1="85.7142857143"  x2="42.8571428571"   y2="14.2857142857"
x1="235.7142857143" y1="21.4285714286"  x2="178.5714285714"  y2="78.5714285714"
x1="121.4285714286" y1="78.5714285714"  x2="64.2857142857"   y2="21.4285714286"
x1="214.2857142857" y1="28.5714285714"  x2="171.4285714286"  y2="71.4285714286"
x1="128.5714285714" y1="71.4285714286"  x2="85.7142857143"   y2="28.5714285714"
x1="192.8571428571" y1="35.7142857143"  x2="164.2857142857"  y2="64.2857142857"
x1="135.7142857143" y1="64.2857142857"  x2="107.1428571429"  y2="35.7142857143"
x1="171.4285714286" y1="42.8571428571"  x2="157.1428571429"  y2="57.1428571429"
x1="142.8571428571" y1="57.1428571429"  x2="128.5714285714"  y2="42.8571428571"
x1="150.0000000000" y1="50.0000000000"  x2="0.0000000000"    y2="0.0000000000"
p
x1="0.0000000000"    y1="0.0000000000"      x2="100.0000000000"  y2="100.0000000000"
x1="100.0000000000"  y1="200.0000000000"    x2="0.0000000000"    y2="200.0000000000"
x1="7.1428571429"    y1="17.8571428571"     x2="92.8571428571"   y2="103.5714285714"
x1="92.8571428571"   y1="189.2857142857"    x2="7.1428571429"    y2="189.2857142857"
x1="14.2857142857"   y1="35.7142857143"     x2="85.7142857143"   y2="107.1428571429"
x1="85.7142857143"   y1="178.5714285714"    x2="14.2857142857"   y2="178.5714285714"
x1="21.4285714286"   y1="53.5714285714"     x2="78.5714285714"   y2="110.7142857143"
x1="78.5714285714"   y1="167.8571428571"    x2="21.4285714286"   y2="167.8571428571"
x1="28.5714285714"   y1="71.4285714286"     x2="71.4285714286"   y2="114.2857142857"
x1="71.4285714286"   y1="157.1428571429"    x2="28.5714285714"   y2="157.1428571429"
x1="35.7142857143"   y1="89.2857142857"     x2="64.2857142857"   y2="117.8571428571"
x1="64.2857142857"   y1="146.4285714286"    x2="35.7142857143"   y2="146.4285714286"
x1="42.8571428571"   y1="107.1428571429"    x2="57.1428571429"   y2="121.4285714286"
x1="57.1428571429"   y1="135.7142857143"    x2="42.8571428571"   y2="135.7142857143" -->
<!-- x="50.0000000000"   y="125.0000000000" -->
p
</svg>
